<?xml version="1.0" encoding="utf-8"?>
<!-- Generator: Adobe Illustrator 27.1.1, SVG Export Plug-In . SVG Version: 6.00 Build 0)  -->
<svg version="1.1" id="Capa_1" xmlns="http://www.w3.org/2000/svg" xmlns:xlink="http://www.w3.org/1999/xlink" x="0px" y="0px"
	 viewBox="0 0 84 56" width="88px" height="57px" style="enable-background:new 0 0 84 56;" xml:space="preserve">
<style type="text/css">
	.st0{fill:#DC052B;}
</style>
<g>
	<rect x="9.83" y="45.98" class="st0" width="1.82" height="7.55"/>
	<rect x="62.41" y="45.98" class="st0" width="1.82" height="7.55"/>
	<polyline class="st0" points="45.73,45.98 43.91,45.98 43.91,50.54 39.9,45.98 39.9,45.97 38.13,45.98 38.13,53.52 39.94,53.52 
		39.94,48.58 44.3,53.52 45.73,53.52 45.73,45.98 	"/>
	<polyline class="st0" points="72.66,45.97 65.42,45.97 65.42,47.39 68.12,47.39 68.12,53.52 69.94,53.52 69.94,47.39 72.66,47.39 
		72.66,45.97 	"/>
	<polyline class="st0" points="27.51,47.39 27.51,45.97 22.63,45.97 22.63,45.98 22.38,45.98 22.38,53.52 24.19,53.52 24.19,50.48 
		27.51,50.48 27.51,49.06 24.19,49.06 24.19,47.39 27.51,47.39 	"/>
	<polyline class="st0" points="46.49,53.52 50.35,46.07 51.13,46.07 55.01,53.55 53.01,53.55 50.71,49.24 48.53,53.51 46.49,53.52 	
		"/>
	<polyline class="st0" points="61.39,46.09 57.53,53.55 56.76,53.55 52.87,46.07 54.88,46.07 57.17,50.37 59.35,46.1 61.39,46.09 	
		"/>
	<polyline class="st0" points="20.85,45.98 19.03,45.98 19.03,50.54 15.02,45.98 15.02,45.97 13.25,45.98 13.25,53.52 15.06,53.52 
		15.06,48.58 19.42,53.52 20.85,53.52 20.85,45.98 	"/>
	<path class="st0" d="M32.84,45.87c-2.41,0-4.36,1.75-4.36,3.91c0,2.16,1.95,3.91,4.36,3.91c2.41,0,4.35-1.75,4.35-3.91
		C37.19,47.62,35.24,45.87,32.84,45.87 M32.84,52.01c-1.37,0-2.49-1-2.49-2.23c0-1.23,1.11-2.23,2.49-2.23c1.37,0,2.49,1,2.49,2.23
		C35.33,51.01,34.21,52.01,32.84,52.01z"/>
	<polyline class="st0" points="9.83,13.38 20.62,24.16 20.62,41.5 17.34,41.5 17.34,25.52 9.83,18.01 9.83,13.38 	"/>
	<path class="st0" d="M32.11,8.39c0,3.33-2.82,6.03-6.3,6.03c-3.48,0-6.3-2.7-6.3-6.03c0-3.33,2.82-6.03,6.3-6.03
		C29.29,2.37,32.11,5.07,32.11,8.39"/>
	<polyline class="st0" points="41.25,13.38 30.46,24.16 30.46,41.5 33.74,41.5 33.74,25.52 41.25,18.01 48.76,25.52 48.76,41.5 
		52.04,41.5 52.04,24.16 41.25,13.38 	"/>
	<polyline class="st0" points="72.66,13.38 61.87,24.16 61.87,41.5 65.15,41.5 65.15,25.52 72.66,18.01 72.66,13.38 	"/>
	<polyline class="st0" points="41.25,8.97 55.31,23.03 55.31,41.5 58.59,41.5 58.59,23.03 72.66,8.97 72.66,4.33 56.95,20.04 
		41.25,4.33 25.54,20.04 9.83,4.33 9.83,8.97 23.9,23.03 23.9,41.5 27.18,41.5 27.18,23.03 41.25,8.97 	"/>
	<path class="st0" d="M62.97,8.39c0,3.33-2.82,6.03-6.3,6.03c-3.48,0-6.3-2.7-6.3-6.03c0-3.33,2.82-6.03,6.3-6.03
		C60.15,2.37,62.97,5.07,62.97,8.39"/>
	<path class="st0" d="M75.83,46.99c0,0.57-0.46,1.02-1.04,1.02c-0.58,0-1.05-0.45-1.05-1.02c0-0.57,0.47-1.02,1.05-1.02
		C75.37,45.97,75.83,46.42,75.83,46.99 M74,46.99c0,0.45,0.34,0.81,0.79,0.81c0.44,0.01,0.78-0.36,0.78-0.81
		c0-0.45-0.34-0.82-0.79-0.82C74.34,46.18,74,46.54,74,46.99z"/>
	<path class="st0" d="M74.43,46.47h0.32c0.23,0,0.35,0.14,0.35,0.31c0,0.13-0.06,0.22-0.16,0.28l0.25,0.46h-0.23l-0.2-0.41h-0.11
		v0.41h-0.21V46.47 M74.74,46.93c0.08,0,0.14-0.05,0.14-0.14c0-0.08-0.06-0.14-0.15-0.14h-0.09v0.28H74.74z"/>
</g>
</svg>
